<svg version="1.1" xmlns="http://www.w3.org/2000/svg" xmlns:xlink="http://www.w3.org/1999/xlink" width="48" height="48" viewBox="0,0,256,256"><g fill="none" fill-rule="nonzero" stroke="none" stroke-width="1" stroke-linecap="butt" stroke-linejoin="miter" stroke-miterlimit="10" stroke-dasharray="" stroke-dashoffset="0" font-family="none" font-weight="none" font-size="none" text-anchor="none" style="mix-blend-mode: normal"><g transform="translate(-13.33333,-16) scale(5.33333,5.33333)"><path d="M45,34v-16c0,-4.418 -3.582,-8 -8,-8h-21c-4.418,0 -8,3.582 -8,8v16z" fill="#8b5cf6"></path><path d="M38,17h4v6h-4z" fill="#ddd6fe"></path><path d="M30,17h10v2h-10z" fill="#ddd6fe"></path><path d="M29,16c-1.10457,0 -2,0.89543 -2,2c0,1.10457 0.89543,2 2,2c1.10457,0 2,-0.89543 2,-2c0,-1.10457 -0.89543,-2 -2,-2z" fill="#ddd6fe"></path><path d="M29,17c-0.55228,0 -1,0.44772 -1,1c0,0.55228 0.44772,1 1,1c0.55228,0 1,-0.44772 1,-1c0,-0.55228 -0.44772,-1 -1,-1z" fill="#a78bfa"></path><path d="M25,34h5v10h-5z" fill="#ddd6fe"></path><path d="M25,34h5v2h-5z" fill="#c4b5fd"></path><path d="M16,10c-4.411,0 -8,3.589 -8,8v14v2h2h12h2v-2v-14c0,-4.411 -3.589,-8 -8,-8z" fill="#6b31b6"></path><path d="M16,12c-3.309,0 -6,2.691 -6,6v14h12v-14c0,-3.309 -2.691,-6 -6,-6z" fill="#8b5cf6"></path><path d="M20,20c0,0.552 -0.448,1 -1,1h-6c-0.552,0 -1,-0.448 -1,-1v0c0,-0.552 0.448,-1 1,-1h6c0.552,0 1,0.448 1,1z" fill="#4c1d95"></path></g></g></svg>